<svg width="14" height="14" viewBox="0 0 14 14" fill="none" xmlns="http://www.w3.org/2000/svg">
<path fill-rule="evenodd" clip-rule="evenodd" d="M0.638428 6.67388C0.638428 2.99199 3.6232 0.00721741 7.30509 0.00721741C9.0732 0.00721741 10.7689 0.709596 12.0191 1.95984C13.2694 3.21008 13.9718 4.90577 13.9718 6.67388C13.9718 10.3558 10.987 13.3406 7.30509 13.3406C3.6232 13.3406 0.638428 10.3558 0.638428 6.67388ZM7.30509 7.34055H9.97176C10.34 7.34055 10.6384 7.04207 10.6384 6.67388C10.6384 6.30569 10.34 6.00722 9.97176 6.00722H7.97176V4.00722C7.97176 3.63903 7.67328 3.34055 7.30509 3.34055C6.9369 3.34055 6.63843 3.63903 6.63843 4.00722V6.67388C6.63843 7.04207 6.9369 7.34055 7.30509 7.34055Z" fill="#8BACD9"/>
</svg>
